{
  "accessors": [
    {
      "bufferView": 2,
      "componentType": 5126,
      "count": 259,
      "max": [
        93.97090911865234,
        91.5463638305664,
        240.9102783203125
      ],
      "min": [
        -93.97090148925781,
        -93.15909576416016,
        -1.2146949768066406
      ],
      "type": "VEC3"
    },
    {
      "bufferView": 2,
      "byteOffset": 3108,
      "componentType": 5126,
      "count": 259,
      "max": [
        0.9998703598976135,
        0.9844645261764526,
        1.0
      ],
      "min": [
        -0.9998700022697449,
        -0.9844085574150085,
        -0.9101755023002625
      ],
      "type": "VEC3"
    },
    {
      "bufferView": 3,
      "componentType": 5126,
      "count": 259,
      "max": [
        1.0,
        0.9643633961677551,
        0.9998703002929688,
        1.0
      ],
      "min": [
        -0.5731496810913086,
        -0.9602900147438049,
        -0.9998699426651001,
        -1.0
      ],
      "type": "VEC4"
    },
    {
      "bufferView": 1,
      "componentType": 5126,
      "count": 259,
      "max": [
        0.8920455574989319,
        0.9682299494743347
      ],
      "min": [
        0.07673205435276031,
        0.04543941095471382
      ],
      "type": "VEC2"
    },
    {
      "bufferView": 0,
      "componentType": 5125,
      "count": 1494,
      "type": "SCALAR"
    },
    {
      "bufferView": 2,
      "byteOffset": 6216,
      "componentType": 5126,
      "count": 2155,
      "max": [
        80.16744995117188,
        91.4603271484375,
        172.98374938964844
      ],
      "min": [
        -69.9891586303711,
        -101.86909484863281,
        -1.2254905700683594
      ],
      "type": "VEC3"
    },
    {
      "bufferView": 2,
      "byteOffset": 32076,
      "componentType": 5126,
      "count": 2155,
      "max": [
        0.999789297580719,
        0.9999052286148071,
        1.0
      ],
      "min": [
        -0.999789297580719,
        -1.0,
        -1.0
      ],
      "type": "VEC3"
    },
    {
      "bufferView": 1,
      "byteOffset": 2072,
      "componentType": 5126,
      "count": 2155,
      "max": [
        1.03125,
        1.0
      ],
      "min": [
        -0.02793893963098526,
        -0.03499521687626839
      ],
      "type": "VEC2"
    },
    {
      "bufferView": 0,
      "byteOffset": 5976,
      "componentType": 5125,
      "count": 6897,
      "type": "SCALAR"
    },
    {
      "bufferView": 2,
      "byteOffset": 57936,
      "componentType": 5126,
      "count": 2236,
      "max": [
        78.99333190917969,
        91.55010223388672,
        170.40426635742188
      ],
      "min": [
        -67.81856536865234,
        -100.58074951171875,
        2.3466720581054688
      ],
      "type": "VEC3"
    },
    {
      "bufferView": 2,
      "byteOffset": 84768,
      "componentType": 5126,
      "count": 2236,
      "max": [
        1.0,
        1.0,
        1.0
      ],
      "min": [
        -1.0,
        -1.0,
        -1.0
      ],
      "type": "VEC3"
    },
    {
      "bufferView": 1,
      "byteOffset": 19312,
      "componentType": 5126,
      "count": 2236,
      "max": [
        1.03125,
        1.0
      ],
      "min": [
        0.0,
        0.0
      ],
      "type": "VEC2"
    },
    {
      "bufferView": 0,
      "byteOffset": 33564,
      "componentType": 5125,
      "count": 5076,
      "type": "SCALAR"
    },
    {
      "bufferView": 2,
      "byteOffset": 111600,
      "componentType": 5126,
      "count": 54,
      "max": [
        74.80607604980469,
        86.14549255371094,
        164.1527862548828
      ],
      "min": [
        -62.49723815917969,
        -85.75804901123047,
        49.65238571166992
      ],
      "type": "VEC3"
    },
    {
      "bufferView": 2,
      "byteOffset": 112248,
      "componentType": 5126,
      "count": 54,
      "max": [
        0.6429506540298462,
        0.8388768434524536,
        0.21184077858924866
      ],
      "min": [
        -0.5014124512672424,
        -0.8388773202896118,
        -0.06293850392103195
      ],
      "type": "VEC3"
    },
    {
      "bufferView": 1,
      "byteOffset": 37200,
      "componentType": 5126,
      "count": 54,
      "max": [
        0.9194723963737488,
        0.42603564262390137
      ],
      "min": [
        0.0805276408791542,
        0.07405659556388855
      ],
      "type": "VEC2"
    },
    {
      "bufferView": 0,
      "byteOffset": 53868,
      "componentType": 5125,
      "count": 144,
      "type": "SCALAR"
    },
    {
      "bufferView": 2,
      "byteOffset": 112896,
      "componentType": 5126,
      "count": 2364,
      "max": [
        67.25679779052734,
        54.94253921508789,
        358.62188720703125
      ],
      "min": [
        -68.62654113769531,
        -51.49139404296875,
        227.18898010253906
      ],
      "type": "VEC3"
    },
    {
      "bufferView": 2,
      "byteOffset": 141264,
      "componentType": 5126,
      "count": 2364,
      "max": [
        0.9961293339729309,
        0.9972686171531677,
        0.9995347857475281
      ],
      "min": [
        -0.9961294531822205,
        -1.0,
        -0.8719704747200012
      ],
      "type": "VEC3"
    },
    {
      "bufferView": 3,
      "byteOffset": 4144,
      "componentType": 5126,
      "count": 2364,
      "max": [
        1.0,
        0.9995881915092468,
        0.9971924424171448,
        1.0
      ],
      "min": [
        -1.0,
        -0.9974878430366516,
        -0.9996572136878967,
        -1.0
      ],
      "type": "VEC4"
    },
    {
      "bufferView": 1,
      "byteOffset": 37632,
      "componentType": 5126,
      "count": 2364,
      "max": [
        1.0,
        1.0
      ],
      "min": [
        0.0,
        0.0
      ],
      "type": "VEC2"
    },
    {
      "bufferView": 0,
      "byteOffset": 54444,
      "componentType": 5125,
      "count": 9600,
      "type": "SCALAR"
    },
    {
      "bufferView": 2,
      "byteOffset": 169632,
      "componentType": 5126,
      "count": 94,
      "max": [
        434.8744201660156,
        441.5829772949219,
        448.39508056640625
      ],
      "min": [
        -434.8743591308594,
        -441.5829772949219,
        77.86295318603516
      ],
      "type": "VEC3"
    },
    {
      "bufferView": 2,
      "byteOffset": 170760,
      "componentType": 5126,
      "count": 94,
      "max": [
        0.9254166483879089,
        0.9396926760673523,
        -0.3420200049877167
      ],
      "min": [
        -0.9254168272018433,
        -0.9396926760673523,
        -1.0
      ],
      "type": "VEC3"
    },
    {
      "bufferView": 1,
      "byteOffset": 56544,
      "componentType": 5126,
      "count": 94,
      "max": [
        0.9999998211860657,
        1.0
      ],
      "min": [
        0.0,
        0.5555555820465088
      ],
      "type": "VEC2"
    },
    {
      "bufferView": 0,
      "byteOffset": 92844,
      "componentType": 5125,
      "count": 378,
      "type": "SCALAR"
    },
    {
      "bufferView": 2,
      "byteOffset": 171888,
      "componentType": 5126,
      "count": 18,
      "max": [
        434.8744201660156,
        441.5829772949219,
        77.86295318603516
      ],
      "min": [
        -434.8743591308594,
        -441.5829772949219,
        77.86295318603516
      ],
      "type": "VEC3"
    },
    {
      "bufferView": 2,
      "byteOffset": 172104,
      "componentType": 5126,
      "count": 18,
      "max": [
        0.0,
        0.0,
        1.0
      ],
      "min": [
        0.0,
        0.0,
        1.0
      ],
      "type": "VEC3"
    },
    {
      "bufferView": 3,
      "byteOffset": 41968,
      "componentType": 5126,
      "count": 18,
      "max": [
        -0.17364758253097534,
        -0.9848074316978455,
        0.0,
        1.0
      ],
      "min": [
        -0.17365023493766785,
        -0.9848079681396484,
        0.0,
        1.0
      ],
      "type": "VEC4"
    },
    {
      "bufferView": 1,
      "byteOffset": 57296,
      "componentType": 5126,
      "count": 18,
      "max": [
        0.9843230247497559,
        0.999500036239624
      ],
      "min": [
        0.0005000000237487257,
        0.0005000000237487257
      ],
      "type": "VEC2"
    },
    {
      "bufferView": 0,
      "byteOffset": 94356,
      "componentType": 5125,
      "count": 48,
      "type": "SCALAR"
    },
    {
      "bufferView": 2,
      "byteOffset": 172320,
      "componentType": 5126,
      "count": 376,
      "max": [
        108.22634887695313,
        7.547504901885986,
        220.03878784179688
      ],
      "min": [
        69.8165283203125,
        -7.547504901885986,
        177.2591552734375
      ],
      "type": "VEC3"
    },
    {
      "bufferView": 2,
      "byteOffset": 176832,
      "componentType": 5126,
      "count": 376,
      "max": [
        0.9883959889411926,
        0.9956899285316467,
        0.9998958110809326
      ],
      "min": [
        -0.9997243881225586,
        -0.9956899285316467,
        -0.999595582485199
      ],
      "type": "VEC3"
    },
    {
      "bufferView": 1,
      "byteOffset": 57440,
      "componentType": 5126,
      "count": 376,
      "max": [
        1.0277777910232544,
        1.1683125495910645
      ],
      "min": [
        -0.163251593708992,
        -0.16702333092689514
      ],
      "type": "VEC2"
    },
    {
      "bufferView": 0,
      "byteOffset": 94548,
      "componentType": 5125,
      "count": 1296,
      "type": "SCALAR"
    },
    {
      "bufferView": 2,
      "byteOffset": 181344,
      "componentType": 5126,
      "count": 18,
      "max": [
        105.89407348632813,
        5.214926242828369,
        220.03878784179688
      ],
      "min": [
        95.00630187988281,
        -5.214926242828369,
        219.02806091308594
      ],
      "type": "VEC3"
    },
    {
      "bufferView": 2,
      "byteOffset": 181560,
      "componentType": 5126,
      "count": 18,
      "max": [
        0.2270321398973465,
        0.13810187578201294,
        0.9989745020866394
      ],
      "min": [
        -0.045275770127773285,
        -0.13810187578201294,
        0.9738872647285461
      ],
      "type": "VEC3"
    },
    {
      "bufferView": 1,
      "byteOffset": 60448,
      "componentType": 5126,
      "count": 18,
      "max": [
        0.4999999701976776,
        0.8263514041900635
      ],
      "min": [
        0.17860612273216248,
        0.17364813387393951
      ],
      "type": "VEC2"
    },
    {
      "bufferView": 0,
      "byteOffset": 99732,
      "componentType": 5125,
      "count": 48,
      "type": "SCALAR"
    }
  ],
  "asset": {
    "extras": {
      "author": "Anthony Yanez (https://sketchfab.com/paulyanez)",
      "license": "CC-BY-4.0 (http://creativecommons.org/licenses/by/4.0/)",
      "source": "https://sketchfab.com/3d-models/spongebobs-house-d9b8edf3526e429fa80758c285dac858",
      "title": "Spongebob's House"
    },
    "generator": "Sketchfab-12.66.0",
    "version": "2.0"
  },
  "bufferViews": [
    {
      "buffer": 0,
      "byteLength": 99924,
      "name": "floatBufferViews",
      "target": 34963
    },
    {
      "buffer": 0,
      "byteLength": 60592,
      "byteOffset": 99924,
      "byteStride": 8,
      "name": "floatBufferViews",
      "target": 34962
    },
    {
      "buffer": 0,
      "byteLength": 181776,
      "byteOffset": 160516,
      "byteStride": 12,
      "name": "floatBufferViews",
      "target": 34962
    },
    {
      "buffer": 0,
      "byteLength": 42256,
      "byteOffset": 342292,
      "byteStride": 16,
      "name": "floatBufferViews",
      "target": 34962
    }
  ],
  "buffers": [
    {
      "byteLength": 384548,
      "uri": "scene.bin"
    }
  ],
  "images": [
    {
      "uri": "textures/03_-_Default_baseColor.png"
    },
    {
      "uri": "textures/03_-_Default_normal.png"
    },
    {
      "uri": "textures/08_-_Default_baseColor.jpeg"
    },
    {
      "uri": "textures/13_-_Default_baseColor.jpeg"
    },
    {
      "uri": "textures/14_-_Default_baseColor.png"
    },
    {
      "uri": "textures/14_-_Default_normal.png"
    },
    {
      "uri": "textures/15_-_Default_baseColor.png"
    }
  ],
  "materials": [
    {
      "doubleSided": true,
      "name": "03_-_Default",
      "normalTexture": {
        "index": 1
      },
      "pbrMetallicRoughness": {
        "baseColorTexture": {
          "index": 0
        },
        "roughnessFactor": 0.6629192073
      }
    },
    {
      "doubleSided": true,
      "name": "02_-_Default",
      "pbrMetallicRoughness": {
        "baseColorFactor": [
          0.20442086819999997,
          0.5563893727999998,
          0.7579697624999999,
          1.0
        ],
        "metallicFactor": 0.5504954268,
        "roughnessFactor": 0.3702362805
      }
    },
    {
      "doubleSided": true,
      "name": "07_-_Default",
      "pbrMetallicRoughness": {
        "baseColorFactor": [
          0.0,
          0.219608,
          0.345098,
          1.0
        ],
        "metallicFactor": 0.763910061,
        "roughnessFactor": 0.3397484756
      }
    },
    {
      "doubleSided": true,
      "name": "08_-_Default",
      "pbrMetallicRoughness": {
        "baseColorTexture": {
          "index": 2
        },
        "roughnessFactor": 0.0
      }
    },
    {
      "doubleSided": true,
      "name": "09_-_Default",
      "normalTexture": {
        "index": 1
      },
      "pbrMetallicRoughness": {
        "baseColorFactor": [
          0.02745099999999998,
          0.23137300000000002,
          0.0,
          1.0
        ],
        "roughnessFactor": 0.8275533536585366
      }
    },
    {
      "alphaMode": "BLEND",
      "doubleSided": true,
      "name": "13_-_Default",
      "pbrMetallicRoughness": {
        "baseColorFactor": [
          1.0,
          1.0,
          1.0,
          0.9285442073
        ],
        "baseColorTexture": {
          "index": 3
        },
        "metallicFactor": 0.0,
        "roughnessFactor": 0.0
      }
    },
    {
      "doubleSided": true,
      "name": "14_-_Default",
      "normalTexture": {
        "index": 5
      },
      "pbrMetallicRoughness": {
        "baseColorTexture": {
          "index": 4
        },
        "metallicFactor": 0.4651295732,
        "roughnessFactor": 0.8929713596
      }
    },
    {
      "doubleSided": true,
      "name": "15_-_Default",
      "pbrMetallicRoughness": {
        "baseColorTexture": {
          "index": 6
        },
        "metallicFactor": 0.0,
        "roughnessFactor": 0.8929713596
      }
    },
    {
      "doubleSided": true,
      "name": "20_-_Default",
      "pbrMetallicRoughness": {
        "baseColorFactor": [
          0.0,
          0.0,
          0.0,
          1.0
        ],
        "roughnessFactor": 0.8929713596
      }
    }
  ],
  "meshes": [
    {
      "name": "House_03 - Default_0",
      "primitives": [
        {
          "attributes": {
            "NORMAL": 1,
            "POSITION": 0,
            "TANGENT": 2,
            "TEXCOORD_0": 3
          },
          "indices": 4,
          "material": 0,
          "mode": 4
        }
      ]
    },
    {
      "name": "House_02 - Default_0",
      "primitives": [
        {
          "attributes": {
            "NORMAL": 6,
            "POSITION": 5,
            "TEXCOORD_0": 7
          },
          "indices": 8,
          "material": 1,
          "mode": 4
        }
      ]
    },
    {
      "name": "House_07 - Default_0",
      "primitives": [
        {
          "attributes": {
            "NORMAL": 10,
            "POSITION": 9,
            "TEXCOORD_0": 11
          },
          "indices": 12,
          "material": 2,
          "mode": 4
        }
      ]
    },
    {
      "name": "House_08 - Default_0",
      "primitives": [
        {
          "attributes": {
            "NORMAL": 14,
            "POSITION": 13,
            "TEXCOORD_0": 15
          },
          "indices": 16,
          "material": 3,
          "mode": 4
        }
      ]
    },
    {
      "name": "House_09 - Default_0",
      "primitives": [
        {
          "attributes": {
            "NORMAL": 18,
            "POSITION": 17,
            "TANGENT": 19,
            "TEXCOORD_0": 20
          },
          "indices": 21,
          "material": 4,
          "mode": 4
        }
      ]
    },
    {
      "name": "Skybox_13 - Default_0",
      "primitives": [
        {
          "attributes": {
            "NORMAL": 23,
            "POSITION": 22,
            "TEXCOORD_0": 24
          },
          "indices": 25,
          "material": 5,
          "mode": 4
        }
      ]
    },
    {
      "name": "Object001_14 - Default_0",
      "primitives": [
        {
          "attributes": {
            "NORMAL": 27,
            "POSITION": 26,
            "TANGENT": 28,
            "TEXCOORD_0": 29
          },
          "indices": 30,
          "material": 6,
          "mode": 4
        }
      ]
    },
    {
      "name": "Object002_15 - Default_0",
      "primitives": [
        {
          "attributes": {
            "NORMAL": 32,
            "POSITION": 31,
            "TEXCOORD_0": 33
          },
          "indices": 34,
          "material": 7,
          "mode": 4
        }
      ]
    },
    {
      "name": "Object002_20 - Default_0",
      "primitives": [
        {
          "attributes": {
            "NORMAL": 36,
            "POSITION": 35,
            "TEXCOORD_0": 37
          },
          "indices": 38,
          "material": 8,
          "mode": 4
        }
      ]
    }
  ],
  "nodes": [
    {
      "children": [
        1
      ],
      "matrix": [
        0.002614503726363182,
        0.0,
        0.0,
        0.0,
        0.0,
        5.805364469953349e-19,
        -0.002614503726363182,
        0.0,
        0.0,
        0.002614503726363182,
        5.805364469953349e-19,
        0.0,
        0.0,
        0.0,
        0.0,
        1.0
      ],
      "name": "Sketchfab_model"
    },
    {
      "children": [
        2
      ],
      "matrix": [
        1.0,
        0.0,
        0.0,
        0.0,
        0.0,
        0.0,
        1.0,
        0.0,
        0.0,
        -1.0,
        0.0,
        0.0,
        0.0,
        0.0,
        0.0,
        1.0
      ],
      "name": "Spongebob's House.FBX"
    },
    {
      "children": [
        3,
        9,
        11,
        13
      ],
      "name": "RootNode"
    },
    {
      "children": [
        4,
        5,
        6,
        7,
        8
      ],
      "matrix": [
        0.7813671827316284,
        0.0,
        0.0,
        0.0,
        0.0,
        1.7349836739102918e-16,
        -0.7813671827316284,
        0.0,
        0.0,
        0.7363905906677246,
        1.6351155777532536e-16,
        0.0,
        12.651796340942383,
        48.758941650390625,
        -2.2560379875358194e-07,
        1.0
      ],
      "name": "House"
    },
    {
      "mesh": 0,
      "name": "House_03 - Default_0"
    },
    {
      "mesh": 1,
      "name": "House_02 - Default_0"
    },
    {
      "mesh": 2,
      "name": "House_07 - Default_0"
    },
    {
      "mesh": 3,
      "name": "House_08 - Default_0"
    },
    {
      "mesh": 4,
      "name": "House_09 - Default_0"
    },
    {
      "children": [
        10
      ],
      "matrix": [
        1.3386249542236328,
        0.0,
        0.0,
        0.0,
        0.0,
        2.9723444910337467e-16,
        -1.3386249542236328,
        0.0,
        0.0,
        1.3386249542236328,
        2.9723444910337467e-16,
        0.0,
        9.249608993530273,
        -56.100406646728516,
        -0.9768444895744324,
        1.0
      ],
      "name": "Skybox"
    },
    {
      "mesh": 5,
      "name": "Skybox_13 - Default_0"
    },
    {
      "children": [
        12
      ],
      "matrix": [
        1.3386249542236328,
        0.0,
        0.0,
        0.0,
        0.0,
        2.9723444910337467e-16,
        -1.3386249542236328,
        0.0,
        0.0,
        1.3386249542236328,
        2.9723444910337467e-16,
        0.0,
        9.249608993530273,
        -56.100406646728516,
        -0.9768444895744324,
        1.0
      ],
      "name": "Object001"
    },
    {
      "mesh": 6,
      "name": "Object001_14 - Default_0"
    },
    {
      "children": [
        14,
        15
      ],
      "matrix": [
        0.7813671827316284,
        0.0,
        0.0,
        0.0,
        0.0,
        1.7349836739102918e-16,
        -0.7813671827316284,
        0.0,
        0.0,
        0.7363905906677246,
        1.6351155777532536e-16,
        0.0,
        12.651796340942383,
        48.758941650390625,
        -2.2560379875358194e-07,
        1.0
      ],
      "name": "Object002"
    },
    {
      "mesh": 7,
      "name": "Object002_15 - Default_0"
    },
    {
      "mesh": 8,
      "name": "Object002_20 - Default_0"
    }
  ],
  "samplers": [
    {
      "magFilter": 9729,
      "minFilter": 9987,
      "wrapS": 10497,
      "wrapT": 10497
    }
  ],
  "scene": 0,
  "scenes": [
    {
      "name": "Sketchfab_Scene",
      "nodes": [
        0
      ]
    }
  ],
  "textures": [
    {
      "sampler": 0,
      "source": 0
    },
    {
      "sampler": 0,
      "source": 1
    },
    {
      "sampler": 0,
      "source": 2
    },
    {
      "sampler": 0,
      "source": 3
    },
    {
      "sampler": 0,
      "source": 4
    },
    {
      "sampler": 0,
      "source": 5
    },
    {
      "sampler": 0,
      "source": 6
    }
  ]
}
