{
  "accessors": [
    {
      "bufferView": 2,
      "componentType": 5126,
      "count": 63848,
      "max": [
        -10.81659984588623,
        0.07590000331401825,
        2.078399896621704
      ],
      "min": [
        -17.816600799560547,
        -6.916399955749512,
        0.598800003528595
      ],
      "type": "VEC3"
    },
    {
      "bufferView": 2,
      "byteOffset": 766176,
      "componentType": 5126,
      "count": 63848,
      "max": [
        0.9614387154579163,
        0.9948386549949646,
        0.9999963045120239
      ],
      "min": [
        -0.9930148720741272,
        -0.9956318140029907,
        0.09220294654369354
      ],
      "type": "VEC3"
    },
    {
      "bufferView": 1,
      "componentType": 5126,
      "count": 63848,
      "max": [
        0.8213000297546387,
        0.9811000227928162
      ],
      "min": [
        0.156700000166893,
        0.06270000338554382
      ],
      "type": "VEC2"
    },
    {
      "bufferView": 0,
      "componentType": 5125,
      "count": 379896,
      "type": "SCALAR"
    },
    {
      "bufferView": 2,
      "byteOffset": 1532352,
      "componentType": 5126,
      "count": 65532,
      "max": [
        -10.78950023651123,
        7.066100120544434,
        2.0580999851226807
      ],
      "min": [
        -17.847000122070313,
        0.026499999687075615,
        0.585099995136261
      ],
      "type": "VEC3"
    },
    {
      "bufferView": 2,
      "byteOffset": 2318736,
      "componentType": 5126,
      "count": 65532,
      "max": [
        0.9935824871063232,
        0.9936067461967468,
        0.9999995231628418
      ],
      "min": [
        -0.989911675453186,
        -0.9951078295707703,
        0.09269615262746811
      ],
      "type": "VEC3"
    },
    {
      "bufferView": 1,
      "byteOffset": 510784,
      "componentType": 5126,
      "count": 65532,
      "max": [
        0.8258000016212463,
        0.9430000185966492
      ],
      "min": [
        0.19179999828338623,
        0.019700000062584877
      ],
      "type": "VEC2"
    },
    {
      "bufferView": 0,
      "byteOffset": 1519584,
      "componentType": 5125,
      "count": 387600,
      "type": "SCALAR"
    },
    {
      "bufferView": 2,
      "byteOffset": 3105120,
      "componentType": 5126,
      "count": 15811,
      "max": [
        -10.777600288391113,
        7.097099781036377,
        2.0141000747680664
      ],
      "min": [
        -17.844100952148438,
        0.05999999865889549,
        0.5670999884605408
      ],
      "type": "VEC3"
    },
    {
      "bufferView": 2,
      "byteOffset": 3294852,
      "componentType": 5126,
      "count": 15811,
      "max": [
        0.9947590827941895,
        0.9874217510223389,
        0.9999890327453613
      ],
      "min": [
        -0.9859204292297363,
        -0.9963217377662659,
        0.08249850571155548
      ],
      "type": "VEC3"
    },
    {
      "bufferView": 1,
      "byteOffset": 1035040,
      "componentType": 5126,
      "count": 15811,
      "max": [
        0.8269000053405762,
        0.9470999836921692
      ],
      "min": [
        0.19210000336170197,
        0.02410000003874302
      ],
      "type": "VEC2"
    },
    {
      "bufferView": 0,
      "byteOffset": 3069984,
      "componentType": 5125,
      "count": 90477,
      "type": "SCALAR"
    }
  ],
  "asset": {
    "extras": {
      "author": "dicatta (https://sketchfab.com/dicatta)",
      "license": "CC-BY-4.0 (http://creativecommons.org/licenses/by/4.0/)",
      "source": "https://sketchfab.com/3d-models/grand-canyon-1637cb0726cb41c99c8967b903e1eba6",
      "title": "Grand Canyon"
    },
    "generator": "Sketchfab-12.66.0",
    "version": "2.0"
  },
  "bufferViews": [
    {
      "buffer": 0,
      "byteLength": 3431892,
      "name": "floatBufferViews",
      "target": 34963
    },
    {
      "buffer": 0,
      "byteLength": 1161528,
      "byteOffset": 3431892,
      "byteStride": 8,
      "name": "floatBufferViews",
      "target": 34962
    },
    {
      "buffer": 0,
      "byteLength": 3484584,
      "byteOffset": 4593420,
      "byteStride": 12,
      "name": "floatBufferViews",
      "target": 34962
    }
  ],
  "buffers": [
    {
      "byteLength": 8078004,
      "uri": "scene.bin"
    }
  ],
  "images": [
    {
      "uri": "textures/Material__4_baseColor.jpeg"
    },
    {
      "uri": "textures/map_01_baseColor.jpeg"
    }
  ],
  "materials": [
    {
      "doubleSided": true,
      "emissiveTexture": {
        "index": 0
      },
      "name": "Material__4",
      "pbrMetallicRoughness": {
        "baseColorTexture": {
          "index": 0
        },
        "metallicFactor": 0.0,
        "roughnessFactor": 0.6
      }
    },
    {
      "doubleSided": true,
      "emissiveTexture": {
        "index": 1
      },
      "name": "map_01",
      "pbrMetallicRoughness": {
        "baseColorTexture": {
          "index": 1
        },
        "metallicFactor": 0.0,
        "roughnessFactor": 0.6
      }
    }
  ],
  "meshes": [
    {
      "name": "Object_0",
      "primitives": [
        {
          "attributes": {
            "NORMAL": 1,
            "POSITION": 0,
            "TEXCOORD_0": 2
          },
          "indices": 3,
          "material": 0,
          "mode": 4
        }
      ]
    },
    {
      "name": "Object_1",
      "primitives": [
        {
          "attributes": {
            "NORMAL": 5,
            "POSITION": 4,
            "TEXCOORD_0": 6
          },
          "indices": 7,
          "material": 1,
          "mode": 4
        }
      ]
    },
    {
      "name": "Object_2",
      "primitives": [
        {
          "attributes": {
            "NORMAL": 9,
            "POSITION": 8,
            "TEXCOORD_0": 10
          },
          "indices": 11,
          "material": 1,
          "mode": 4
        }
      ]
    }
  ],
  "nodes": [
    {
      "children": [
        1
      ],
      "matrix": [
        1.0,
        0.0,
        0.0,
        0.0,
        0.0,
        2.220446049250313e-16,
        -1.0,
        0.0,
        0.0,
        1.0,
        2.220446049250313e-16,
        0.0,
        0.0,
        0.0,
        0.0,
        1.0
      ],
      "name": "Sketchfab_model"
    },
    {
      "children": [
        2,
        3,
        4
      ],
      "name": "GrandCn.obj.cleaner.materialmerger.gles"
    },
    {
      "mesh": 0,
      "name": "Object_2"
    },
    {
      "mesh": 1,
      "name": "Object_3"
    },
    {
      "mesh": 2,
      "name": "Object_4"
    }
  ],
  "samplers": [
    {
      "magFilter": 9729,
      "minFilter": 9987,
      "wrapS": 10497,
      "wrapT": 10497
    }
  ],
  "scene": 0,
  "scenes": [
    {
      "name": "Sketchfab_Scene",
      "nodes": [
        0
      ]
    }
  ],
  "textures": [
    {
      "sampler": 0,
      "source": 0
    },
    {
      "sampler": 0,
      "source": 1
    }
  ]
}
